<svg width="427" height="427" viewBox="0 0 427 427" fill="none" xmlns="http://www.w3.org/2000/svg">
<rect width="427" height="427" rx="50" fill="#F1F0EE"/>
<path d="M77.0375 189.737L96.9515 208.839L96.9603 208.847L96.9691 208.857C97.9672 209.915 100.084 212.915 100.755 216.651L100.815 217.024C101.098 219 101.153 222.63 101.109 226.396C101.061 230.433 100.899 234.688 100.763 237.373L100.762 237.38V237.388C100.689 238.288 100.365 239.65 99.6215 240.853C98.9177 241.99 97.8176 243.013 96.1869 243.321L95.8539 243.373C94.1892 243.579 90.903 243.619 87.5072 243.59C84.0979 243.561 80.5371 243.46 78.2982 243.376L78.2084 243.373L78.1263 243.339C76.8518 242.814 74.2212 240.998 73.4271 237.764L73.3558 237.446C73.265 236.997 73.208 236.172 73.1722 235.09C73.136 233.993 73.1207 232.591 73.1224 230.963C73.1258 227.707 73.1976 223.531 73.306 219.039C73.5229 210.055 73.8885 199.799 74.1596 193.095L74.1605 193.071L74.1635 193.048C74.2364 192.507 74.4321 191.693 74.7953 190.998C75.1455 190.329 75.7477 189.599 76.6908 189.599H76.892L77.0375 189.737ZM79.0092 196.599C78.2056 196.599 77.709 197.231 77.434 197.767C77.1448 198.33 76.9906 198.987 76.933 199.423L76.9301 199.445L76.9291 199.469C76.7183 204.782 76.4337 212.91 76.265 220.03C76.1807 223.59 76.1251 226.9 76.1224 229.482C76.1211 230.772 76.1333 231.884 76.1615 232.755C76.1893 233.612 76.2336 234.274 76.306 234.639C76.8541 237.401 79.0321 238.944 80.0795 239.384L80.1635 239.419L80.2543 239.422C81.9966 239.489 84.768 239.569 87.4213 239.592C90.0603 239.615 92.624 239.583 93.9281 239.419L94.1957 239.376C95.5042 239.124 96.3834 238.288 96.9408 237.37C97.529 236.401 97.7836 235.306 97.8412 234.581L97.8422 234.573V234.566C97.9478 232.436 98.0747 229.064 98.1117 225.863C98.1461 222.882 98.104 219.996 97.8822 218.42L97.8353 218.123C97.3093 215.141 95.6527 212.746 94.8656 211.896L94.8568 211.886L94.848 211.877L79.3588 196.741L79.2133 196.599H79.0092Z" fill="#080807"/>
<path d="M77.0375 189.737L79.1142 187.572L79.1072 187.566L77.0375 189.737ZM96.9515 208.839L94.8748 211.004L94.9159 211.043L94.9585 211.081L96.9515 208.839ZM96.9603 208.847L99.1902 206.84L99.0784 206.716L98.9534 206.605L96.9603 208.847ZM96.9691 208.857L94.7392 210.864L94.7627 210.89L94.7868 210.915L96.9691 208.857ZM100.755 216.651L103.718 216.178L103.713 216.149L103.708 216.12L100.755 216.651ZM100.815 217.024L103.784 216.598L103.781 216.574L103.777 216.551L100.815 217.024ZM101.109 226.396L104.109 226.431L104.109 226.431L101.109 226.396ZM100.763 237.373L103.733 237.797L103.752 237.662L103.759 237.525L100.763 237.373ZM100.762 237.38L97.7922 236.956L97.7621 237.167V237.38H100.762ZM100.762 237.388L103.752 237.63L103.762 237.509V237.388H100.762ZM99.6215 240.853L102.173 242.431L102.173 242.431L99.6215 240.853ZM96.1869 243.321L96.6476 246.286L96.696 246.278L96.744 246.269L96.1869 243.321ZM95.8539 243.373L96.222 246.351L96.2684 246.345L96.3146 246.338L95.8539 243.373ZM87.5072 243.59L87.4814 246.59L87.4814 246.59L87.5072 243.59ZM78.2982 243.376L78.4106 240.378L78.4033 240.378L78.396 240.378L78.2982 243.376ZM78.2084 243.373L77.0545 246.142L77.5616 246.354L78.1106 246.372L78.2084 243.373ZM78.1263 243.339L79.2802 240.57L79.2699 240.566L78.1263 243.339ZM73.4271 237.764L70.5001 238.421L70.5066 238.45L70.5136 238.479L73.4271 237.764ZM73.3558 237.446L70.4152 238.041L70.4217 238.072L70.4288 238.104L73.3558 237.446ZM73.1722 235.09L70.1739 235.189L70.1739 235.189L73.1722 235.09ZM73.1224 230.963L70.1224 230.96L70.1224 230.96L73.1224 230.963ZM73.306 219.039L70.3069 218.967L73.306 219.039ZM74.1596 193.095L71.1621 192.97L71.162 192.974L74.1596 193.095ZM74.1605 193.071L71.1837 192.699L71.1683 192.823L71.1631 192.947L74.1605 193.071ZM74.1635 193.048L71.1903 192.647L71.1884 192.662L71.1866 192.676L74.1635 193.048ZM74.7953 190.998L72.1368 189.608L72.1367 189.608L74.7953 190.998ZM76.6908 189.599L76.6908 186.599L76.6901 186.599L76.6908 189.599ZM76.892 189.599L78.9617 187.427L78.0926 186.599H76.892V189.599ZM79.0092 196.599L79.0092 193.599L79.0088 193.599L79.0092 196.599ZM77.434 197.767L74.7649 196.397L74.7648 196.397L77.434 197.767ZM76.933 199.423L73.9589 199.03L73.9582 199.035L76.933 199.423ZM76.9301 199.445L73.9553 199.057L73.9382 199.189L73.9327 199.321L76.9301 199.445ZM76.9291 199.469L73.9317 199.344L73.9314 199.35L76.9291 199.469ZM76.265 220.03L73.2659 219.959L76.265 220.03ZM76.1224 229.482L73.1224 229.479L73.1224 229.479L76.1224 229.482ZM76.1615 232.755L73.1631 232.852L73.1631 232.852L76.1615 232.755ZM76.306 234.639L73.3634 235.223L73.3634 235.223L76.306 234.639ZM80.0795 239.384L78.9173 242.15L78.9211 242.151L80.0795 239.384ZM80.1635 239.419L79.005 242.186L79.5146 242.4L80.0667 242.418L80.1635 239.419ZM80.2543 239.422L80.3688 236.424L80.3599 236.424L80.351 236.424L80.2543 239.422ZM87.4213 239.592L87.3949 242.592L87.3949 242.592L87.4213 239.592ZM93.9281 239.419L94.303 242.396L94.3535 242.389L94.4038 242.381L93.9281 239.419ZM94.1957 239.376L94.6713 242.338L94.7175 242.331L94.7633 242.322L94.1957 239.376ZM96.9408 237.37L99.5052 238.927L99.5053 238.927L96.9408 237.37ZM97.8412 234.581L94.8644 234.209L94.856 234.276L94.8506 234.344L97.8412 234.581ZM97.8422 234.573L100.819 234.946L100.842 234.76V234.573H97.8422ZM97.8422 234.566L94.8459 234.417L94.8422 234.491V234.566H97.8422ZM98.1117 225.863L101.111 225.898L101.111 225.898L98.1117 225.863ZM97.8822 218.42L100.853 218.002L100.849 217.977L100.845 217.952L97.8822 218.42ZM97.8353 218.123L100.799 217.655L100.794 217.629L100.79 217.602L97.8353 218.123ZM94.8656 211.896L92.6357 213.903L92.6498 213.918L92.664 213.934L94.8656 211.896ZM94.8568 211.886L97.0867 209.879L97.0339 209.82L96.9781 209.765L94.8568 211.886ZM94.848 211.877L96.9693 209.756L96.9571 209.744L96.9447 209.731L94.848 211.877ZM79.3588 196.741L77.2591 198.884L77.2621 198.887L79.3588 196.741ZM79.2133 196.599L81.3129 194.456L80.4381 193.599H79.2133V196.599ZM77.0375 189.737L74.9608 191.903L94.8748 211.004L96.9515 208.839L99.0282 206.674L79.1142 187.572L77.0375 189.737ZM96.9515 208.839L94.9585 211.081L94.9672 211.089L96.9603 208.847L98.9534 206.605L98.9446 206.597L96.9515 208.839ZM96.9603 208.847L94.7304 210.854L94.7392 210.864L96.9691 208.857L99.199 206.85L99.1902 206.84L96.9603 208.847ZM96.9691 208.857L94.7868 210.915C95.4863 211.657 97.2575 214.148 97.8025 217.181L100.755 216.651L103.708 216.12C102.91 211.681 100.448 208.173 99.1514 206.798L96.9691 208.857ZM100.755 216.651L97.7928 217.124L97.8524 217.497L100.815 217.024L103.777 216.551L103.718 216.178L100.755 216.651ZM100.815 217.024L97.8452 217.449C98.0901 219.158 98.1537 222.557 98.109 226.36L101.109 226.396L104.109 226.431C104.152 222.704 104.106 218.842 103.784 216.598L100.815 217.024ZM101.109 226.396L98.109 226.36C98.062 230.351 97.9011 234.565 97.7669 237.222L100.763 237.373L103.759 237.525C103.896 234.81 104.06 230.516 104.109 226.431L101.109 226.396ZM100.763 237.373L97.7932 236.949L97.7922 236.956L100.762 237.38L103.732 237.804L103.733 237.797L100.763 237.373ZM100.762 237.38H97.7621V237.388H100.762H103.762V237.38H100.762ZM100.762 237.388L97.7718 237.146C97.7295 237.67 97.517 238.552 97.07 239.275L99.6215 240.853L102.173 242.431C103.214 240.748 103.649 238.907 103.752 237.63L100.762 237.388ZM99.6215 240.853L97.0701 239.275C96.6768 239.91 96.2141 240.263 95.6298 240.374L96.1869 243.321L96.744 246.269C99.4211 245.763 101.159 244.07 102.173 242.431L99.6215 240.853ZM96.1869 243.321L95.7262 240.357L95.3931 240.409L95.8539 243.373L96.3146 246.338L96.6476 246.286L96.1869 243.321ZM95.8539 243.373L95.4858 240.396C94.0542 240.573 90.9753 240.62 87.533 240.59L87.5072 243.59L87.4814 246.59C90.8306 246.619 94.3242 246.585 96.222 246.351L95.8539 243.373ZM87.5072 243.59L87.5331 240.59C84.1586 240.561 80.6273 240.461 78.4106 240.378L78.2982 243.376L78.1859 246.374C80.4469 246.459 84.0373 246.56 87.4814 246.59L87.5072 243.59ZM78.2982 243.376L78.396 240.378L78.3062 240.375L78.2084 243.373L78.1106 246.372L78.2004 246.375L78.2982 243.376ZM78.2084 243.373L79.3622 240.604L79.2802 240.57L78.1263 243.339L76.9725 246.108L77.0545 246.142L78.2084 243.373ZM78.1263 243.339L79.2699 240.566C78.5647 240.275 76.836 239.066 76.3406 237.049L73.4271 237.764L70.5136 238.479C71.6063 242.93 75.1389 245.352 76.9828 246.113L78.1263 243.339ZM73.4271 237.764L76.3542 237.106L76.2829 236.789L73.3558 237.446L70.4288 238.104L70.5001 238.421L73.4271 237.764ZM73.3558 237.446L76.2964 236.852C76.2965 236.853 76.2958 236.849 76.2944 236.842C76.2931 236.834 76.2913 236.823 76.2891 236.808C76.2846 236.779 76.2791 236.739 76.273 236.687C76.2606 236.583 76.2476 236.448 76.2349 236.279C76.2092 235.94 76.1877 235.509 76.1706 234.991L73.1722 235.09L70.1739 235.189C70.2084 236.235 70.267 237.307 70.4152 238.041L73.3558 237.446ZM73.1722 235.09L76.1706 234.991C76.136 233.943 76.1208 232.579 76.1224 230.966L73.1224 230.963L70.1224 230.96C70.1207 232.603 70.136 234.043 70.1739 235.189L73.1722 235.09ZM73.1224 230.963L76.1224 230.966C76.1258 227.744 76.197 223.595 76.3052 219.112L73.306 219.039L70.3069 218.967C70.1983 223.467 70.1259 227.67 70.1224 230.96L73.1224 230.963ZM73.306 219.039L76.3052 219.112C76.5215 210.149 76.8865 199.91 77.1571 193.216L74.1596 193.095L71.162 192.974C70.8906 199.688 70.5243 209.961 70.3069 218.967L73.306 219.039ZM74.1596 193.095L77.1569 193.22L77.1579 193.196L74.1605 193.071L71.1631 192.947L71.1622 192.97L74.1596 193.095ZM74.1605 193.071L77.1374 193.444L77.1403 193.42L74.1635 193.048L71.1866 192.676L71.1837 192.699L74.1605 193.071ZM74.1635 193.048L77.1366 193.449C77.1537 193.322 77.1908 193.127 77.2526 192.914C77.3152 192.697 77.3871 192.516 77.4538 192.388L74.7953 190.998L72.1367 189.608C71.5658 190.7 71.2943 191.876 71.1903 192.647L74.1635 193.048ZM74.7953 190.998L77.4538 192.388C77.483 192.332 77.5058 192.298 77.5171 192.283C77.5291 192.267 77.5152 192.289 77.4667 192.331C77.416 192.374 77.3191 192.444 77.1732 192.504C77.0207 192.565 76.8533 192.599 76.6915 192.599L76.6908 189.599L76.6901 186.599C73.9801 186.599 72.6101 188.703 72.1368 189.608L74.7953 190.998ZM76.6908 189.599V192.599H76.892V189.599V186.599H76.6908V189.599ZM76.892 189.599L74.8223 191.771L74.9678 191.909L77.0375 189.737L79.1072 187.566L78.9617 187.427L76.892 189.599ZM79.0092 196.599L79.0088 193.599C76.4084 193.599 75.1493 195.648 74.7649 196.397L77.434 197.767L80.103 199.137C80.1403 199.064 80.1224 199.132 79.9909 199.247C79.9144 199.313 79.7878 199.405 79.6073 199.479C79.4197 199.556 79.2134 199.599 79.0095 199.599L79.0092 196.599ZM77.434 197.767L74.7648 196.397C74.2731 197.356 74.0462 198.37 73.9589 199.03L76.933 199.423L79.9071 199.817C79.9174 199.738 79.9416 199.607 79.9831 199.46C80.0254 199.311 80.0704 199.2 80.1031 199.136L77.434 197.767ZM76.933 199.423L73.9582 199.035L73.9553 199.057L76.9301 199.445L79.9049 199.834L79.9078 199.811L76.933 199.423ZM76.9301 199.445L73.9327 199.321L73.9317 199.344L76.9291 199.469L79.9265 199.594L79.9275 199.57L76.9301 199.445ZM76.9291 199.469L73.9314 199.35C73.7202 204.673 73.435 212.818 73.2659 219.959L76.265 220.03L79.2642 220.102C79.4324 213.002 79.7163 204.891 79.9267 199.588L76.9291 199.469ZM76.265 220.03L73.2659 219.959C73.1813 223.527 73.1251 226.864 73.1224 229.479L76.1224 229.482L79.1224 229.485C79.1251 226.937 79.18 223.653 79.2642 220.102L76.265 220.03ZM76.1224 229.482L73.1224 229.479C73.1211 230.784 73.1333 231.934 73.1631 232.852L76.1615 232.755L79.1599 232.658C79.1332 231.834 79.1211 230.76 79.1224 229.485L76.1224 229.482ZM76.1615 232.755L73.1631 232.852C73.1897 233.672 73.2355 234.578 73.3634 235.223L76.306 234.639L79.2487 234.055C79.2512 234.068 79.2458 234.042 79.2366 233.964C79.228 233.889 79.2184 233.789 79.2088 233.659C79.1894 233.398 79.1731 233.064 79.1599 232.658L76.1615 232.755ZM76.306 234.639L73.3634 235.223C74.1658 239.266 77.2784 241.461 78.9173 242.15L80.0795 239.384L81.2417 236.618C81.1059 236.561 80.6448 236.306 80.1844 235.82C79.7488 235.36 79.3918 234.776 79.2487 234.055L76.306 234.639ZM80.0795 239.384L78.9211 242.151L79.005 242.186L80.1635 239.419L81.3219 236.652L81.2379 236.617L80.0795 239.384ZM80.1635 239.419L80.0667 242.418L80.1576 242.42L80.2543 239.422L80.351 236.424L80.2602 236.421L80.1635 239.419ZM80.2543 239.422L80.1398 242.42C81.9044 242.487 84.706 242.568 87.3949 242.592L87.4213 239.592L87.4476 236.592C84.8301 236.569 82.0888 236.49 80.3688 236.424L80.2543 239.422ZM87.4213 239.592L87.3949 242.592C89.9869 242.615 92.7616 242.59 94.303 242.396L93.9281 239.419L93.5533 236.443C92.4864 236.577 90.1336 236.616 87.4476 236.592L87.4213 239.592ZM93.9281 239.419L94.4038 242.381L94.6713 242.338L94.1957 239.376L93.72 236.414L93.4524 236.457L93.9281 239.419ZM94.1957 239.376L94.7633 242.322C97.1333 241.865 98.6462 240.342 99.5052 238.927L96.9408 237.37L94.3764 235.813C94.2477 236.025 94.116 236.17 93.9989 236.262C93.894 236.344 93.7815 236.401 93.628 236.43L94.1957 239.376ZM96.9408 237.37L99.5053 238.927C100.384 237.479 100.745 235.91 100.832 234.819L97.8412 234.581L94.8506 234.344C94.8387 234.493 94.8001 234.741 94.7144 235.029C94.6293 235.315 94.5139 235.587 94.3763 235.814L96.9408 237.37ZM97.8412 234.581L100.818 234.953L100.819 234.946L97.8422 234.573L94.8653 234.201L94.8644 234.209L97.8412 234.581ZM97.8422 234.573H100.842V234.566H97.8422H94.8422V234.573H97.8422ZM97.8422 234.566L100.838 234.714C100.945 232.557 101.074 229.145 101.111 225.898L98.1117 225.863L95.1119 225.829C95.0755 228.983 94.95 232.316 94.8459 234.417L97.8422 234.566ZM98.1117 225.863L101.111 225.898C101.145 222.955 101.112 219.841 100.853 218.002L97.8822 218.42L94.9115 218.838C95.0963 220.151 95.1468 222.809 95.1119 225.829L98.1117 225.863ZM97.8822 218.42L100.845 217.952L100.799 217.655L97.8353 218.123L94.872 218.591L94.9189 218.888L97.8822 218.42ZM97.8353 218.123L100.79 217.602C100.142 213.929 98.1508 211.028 97.0672 209.858L94.8656 211.896L92.664 213.934C93.1546 214.464 94.4768 216.352 94.8809 218.644L97.8353 218.123ZM94.8656 211.896L97.0955 209.889L97.0867 209.879L94.8568 211.886L92.6269 213.893L92.6357 213.903L94.8656 211.896ZM94.8568 211.886L96.9781 209.765L96.9693 209.756L94.848 211.877L92.7267 213.998L92.7355 214.007L94.8568 211.886ZM94.848 211.877L96.9447 209.731L81.4555 194.596L79.3588 196.741L77.2621 198.887L92.7513 214.023L94.848 211.877ZM79.3588 196.741L81.4584 194.599L81.3129 194.456L79.2133 196.599L77.1136 198.742L77.2591 198.884L79.3588 196.741ZM79.2133 196.599V193.599H79.0092V196.599V199.599H79.2133V196.599Z" fill="black"/>
<path d="M339.623 303.599C321.623 333.599 253.123 362.099 221.123 372.599C214.323 316.599 195.386 289.599 191.122 280.599C188.122 274.265 177.923 257.399 161.122 240.599C144.322 223.799 136.456 218.265 134.622 217.599C112.222 207.999 97.6225 196.599 93.1225 192.099C73.9225 175.699 56.1225 154.599 49.6225 146.099C48.4559 142.765 48.1225 134.499 56.1225 128.099C64.1225 121.699 77.7892 112.099 83.6225 108.099C132.623 78.0988 131.123 85.0988 155.623 75.5987C175.223 67.9987 210.123 69.7654 225.123 71.5988C222.723 72.3988 221.789 74.5988 221.623 75.5987V85.0988C221.623 86.6988 222.956 87.4321 223.623 87.5988C225.123 87.7654 228.423 87.9988 229.623 87.5988C230.823 87.1988 231.123 86.4321 231.123 86.0988C232.289 75.9321 238.723 55.2987 255.123 54.0987C271.523 52.8987 280.956 62.9321 283.623 68.0987C293.223 100.099 265.623 105.099 250.623 103.599V116.599C290.623 125.399 301.289 92.9321 301.623 75.5987C318.423 85.5987 335.623 99.7654 342.123 105.599C354.956 120.432 380.223 160.299 378.623 201.099C376.623 252.099 362.123 266.099 339.623 303.599Z" fill="#080807" stroke="black"/>
<path d="M132.435 133.211C134.245 137.477 138.065 140.684 143.057 142.126C148.049 143.569 153.802 143.128 159.051 140.901C164.301 138.674 168.616 134.844 171.048 130.253C173.481 125.661 173.83 120.685 172.021 116.419L163.517 120.026C164.549 122.46 164.35 125.298 162.962 127.917C161.575 130.535 159.114 132.72 156.12 133.99C153.126 135.26 149.844 135.511 146.997 134.689C144.15 133.866 141.971 132.037 140.939 129.604L132.435 133.211Z" fill="#D73F09"/>
</svg>
